Coordinates
version=1
nRows=13
nColumns=38
inDegrees=no

Units are S.I. units (second, meters, Newtons, ...)
If the header above contains a line with 'inDegrees', this indicates whether rotational values are in degrees (yes) or radians (no).

endheader
time	pelvis_tilt	pelvis_list	pelvis_rotation	pelvis_tx	pelvis_ty	pelvis_tz	hip_flexion_r	hip_adduction_r	hip_rotation_r	knee_angle_r	ankle_angle_r	subtalar_angle_r	mtp_angle_r	hip_flexion_l	hip_adduction_l	hip_rotation_l	knee_angle_l	ankle_angle_l	subtalar_angle_l	mtp_angle_l	lumbar_extension	lumbar_bending	lumbar_rotation	arm_flex_r	arm_add_r	arm_rot_r	elbow_flex_r	pro_sup_r	wrist_flex_r	wrist_dev_r	arm_flex_l	arm_add_l	arm_rot_l	elbow_flex_l	pro_sup_l	wrist_flex_l	wrist_dev_l
0	3.06693	1.45445	-1.59471	0.715009	-0.531575	0.946721	-0.322243	0.0187133	-0.230949	0.0791213	0.165205	0	0	0.220224	-0.0817878	-0.386883	0.140125	-0.000264247	0	0	-0.259671	-0.00915334	0.165643	0.111934	-0.351957	1.11664	0.431751	0.51233	0	0	0.170803	-0.164115	0.103515	0.195012	1.5708	0	0
0.01	3.13931	1.44994	-1.6673	0.715492	-0.52289	0.946373	-0.337353	0.00967718	-0.228217	0.077913	0.169625	0	0	0.200684	-0.0577361	-0.359691	0.0730849	-0.0092786	0	0	-0.265748	-0.0216919	0.16732	0.110579	-0.34643	1.10619	0.425652	0.517527	0	0	0.172109	-0.167008	0.110077	0.199574	1.5708	0	0
0.02	3.07652	1.44226	-1.60385	0.715042	-0.513044	0.946267	-0.363751	0.0172309	-0.233876	0.06398	0.161738	0	0	0.163047	-0.0466239	-0.323935	0	-0.0285225	0	0	-0.273618	-0.0139732	0.170291	0.107417	-0.34851	1.10219	0.42497	0.51983	0	0	0.170659	-0.163781	0.109603	0.200408	1.5708	0	0
0.03	-3.12272	1.45819	-1.68125	0.713518	-0.503481	0.941672	-0.343431	0.00742325	-0.237999	0.0931175	0.185728	0	0	0.19702	-0.0335158	-0.319237	0	-0.0118901	0	0	-0.252516	-0.0223601	0.167937	0.0969781	-0.35001	1.09373	0.428177	0.522983	0	0	0.168105	-0.16263	0.112015	0.199705	1.5708	0	0
0.04	-3.10791	1.45664	-1.69476	0.713299	-0.493757	0.940165	-0.350772	0.00334242	-0.24648	0.103723	0.192438	0	0	0.200141	-0.0273733	-0.316267	0	-0.00724848	0	0	-0.251948	-0.0258814	0.170237	0.0912301	-0.349882	1.08804	0.428886	0.52409	0	0	0.166972	-0.16255	0.112526	0.200965	1.5708	0	0
0.05	-3.07196	1.444	-1.73689	0.715066	-0.483796	0.940321	-0.36896	-0.00597479	-0.249979	0.115019	0.196867	0	0	0.186631	-0.0182925	-0.312691	0	-0.0149958	0	0	-0.262407	-0.0381643	0.179472	0.0860298	-0.34465	1.08053	0.425615	0.524571	0	0	0.167337	-0.165953	0.114258	0.203327	1.5708	0	0
0.06	-3.09302	1.44539	-1.71492	0.713732	-0.47346	0.938001	-0.370111	-0.0082156	-0.259756	0.133845	0.207471	0	0	0.18571	-0.0156107	-0.309838	0	-0.0189917	0	0	-0.256571	-0.0346037	0.181616	0.0786552	-0.34952	1.07447	0.430565	0.526107	0	0	0.16252	-0.163616	0.116144	0.205749	1.5708	0	0
0.07	-3.0748	1.44228	-1.7379	0.714049	-0.462721	0.936951	-0.374881	-0.0169164	-0.26649	0.153105	0.215434	0	0	0.176638	-0.00843066	-0.3018	0	-0.0286586	0	0	-0.255342	-0.0405745	0.189614	0.0698871	-0.349702	1.06502	0.433506	0.527955	0	0	0.159295	-0.164709	0.118063	0.209322	1.5708	0	0
0.08	-3.04715	1.44471	-1.77231	0.714487	-0.451037	0.935845	-0.37542	-0.0304975	-0.278375	0.171056	0.22482	0	0	0.168932	-0.00163524	-0.298172	0	-0.0336252	0	0	-0.248475	-0.0470132	0.201943	0.0568658	-0.347866	1.04683	0.433901	0.530877	0	0	0.15658	-0.166072	0.121041	0.212313	1.5708	0	0
0.09	-3.01561	1.43544	-1.81883	0.715582	-0.440883	0.936098	-0.38696	-0.04702	-0.295284	0.183054	0.225127	0	0	0.151408	0.00903911	-0.290364	0	-0.0618717	0	0	-0.254629	-0.0587717	0.220485	0.0493715	-0.346199	1.03061	0.431778	0.535934	0	0	0.156497	-0.165843	0.123144	0.212911	1.5708	0	0
0.1	-3.00893	1.42664	-1.82308	0.714848	-0.429012	0.935395	-0.393872	-0.0565304	-0.290774	0.215553	0.231378	0	0	0.153269	0.0103191	-0.297859	0.0334299	-0.0616472	0	0	-0.2565	-0.0628163	0.223028	0.0372404	-0.345077	1.01571	0.432097	0.542093	0	0	0.1527	-0.166535	0.125699	0.210042	1.5708	0	0
0.11	-2.98228	1.41234	-1.85935	0.715908	-0.417606	0.936218	-0.407367	-0.0736292	-0.293512	0.238436	0.230954	0	0	0.130556	0.0208587	-0.294544	0.0323179	-0.0929282	0	0	-0.265084	-0.0761262	0.237207	0.0272857	-0.340159	0.999795	0.427821	0.548444	0	0	0.151844	-0.168344	0.12823	0.209669	1.5708	0	0
0.12	-2.84512	1.37459	-2.00438	0.716075	-0.407786	0.94042	-0.432154	-0.123375	-0.310853	0.268294	0.228819	0	0	0.0936982	0.058147	-0.310583	0.0312737	-0.147543	0	0	-0.295609	-0.120364	0.2412	0.0276168	-0.329607	0.984955	0.416365	0.555069	0	0	0.157607	-0.17272	0.131468	0.214028	1.5708	0	0
